<svg height="1518" width="720" xmlns="http://www.w3.org/2000/svg">
<rect height="1518" fill="#555" width="720"></rect>
<text fill="#7f7" font-family="Courier New" font-size="12" xml:space="preserve">
<tspan x="10" y="26">11 megabytes installed</tspan>
<tspan x="10" y="42"></tspan>
<tspan x="10" y="58">node_modules</tspan>
<tspan x="10" y="74">└─┬ licensing@0.1.0 </tspan>
<tspan x="10" y="90">  ├── argh@0.1.4 </tspan>
<tspan x="10" y="106">  ├─┬ licenses@0.0.20 </tspan>
<tspan x="10" y="122">  │ ├── async@0.6.2 </tspan>
<tspan x="10" y="138">  │ ├── debug@0.8.1 </tspan>
<tspan x="10" y="154">  │ ├─┬ fusing@0.2.3 </tspan>
<tspan x="10" y="170">  │ │ └─┬ predefine@0.1.2 </tspan>
<tspan x="10" y="186">  │ │   └── extendible@0.1.1 </tspan>
<tspan x="10" y="202">  │ ├─┬ githulk@0.0.7 </tspan>
<tspan x="10" y="218">  │ │ ├── debug@0.7.4 </tspan>
<tspan x="10" y="234">  │ │ ├── extract-github@0.0.5 </tspan>
<tspan x="10" y="250">  │ │ └─┬ mana@0.1.41 </tspan>
<tspan x="10" y="266">  │ │   ├─┬ assign@0.1.7 </tspan>
<tspan x="10" y="282">  │ │   │ └─┬ fusing@0.4.0 </tspan>
<tspan x="10" y="298">  │ │   │   └── emits@1.0.2 </tspan>
<tspan x="10" y="314">  │ │   ├─┬ back@1.0.1 </tspan>
<tspan x="10" y="330">  │ │   │ └── xtend@4.0.1 </tspan>
<tspan x="10" y="346">  │ │   ├─┬ diagnostics@1.0.1 </tspan>
<tspan x="10" y="362">  │ │   │ ├─┬ colorspace@1.0.1 </tspan>
<tspan x="10" y="378">  │ │   │ │ ├─┬ color@0.8.0 </tspan>
<tspan x="10" y="394">  │ │   │ │ │ ├── color-convert@0.5.3 </tspan>
<tspan x="10" y="410">  │ │   │ │ │ └─┬ color-string@0.3.0 </tspan>
<tspan x="10" y="426">  │ │   │ │ │   └── color-name@1.1.2 </tspan>
<tspan x="10" y="442">  │ │   │ │ └── text-hex@0.0.0 </tspan>
<tspan x="10" y="458">  │ │   │ ├─┬ enabled@1.0.2 </tspan>
<tspan x="10" y="474">  │ │   │ │ └── env-variable@0.0.3 </tspan>
<tspan x="10" y="490">  │ │   │ └─┬ kuler@0.0.0 </tspan>
<tspan x="10" y="506">  │ │   │   └── colornames@0.0.2 </tspan>
<tspan x="10" y="522">  │ │   ├── eventemitter3@1.2.0 </tspan>
<tspan x="10" y="538">  │ │   ├─┬ fusing@1.0.0 </tspan>
<tspan x="10" y="554">  │ │   │ └── emits@3.0.0 </tspan>
<tspan x="10" y="570">  │ │   ├── millisecond@0.1.2 </tspan>
<tspan x="10" y="586">  │ │   └─┬ request@2.81.0 </tspan>
<tspan x="10" y="602">  │ │     ├── aws-sign2@0.6.0 </tspan>
<tspan x="10" y="618">  │ │     ├── aws4@1.6.0 </tspan>
<tspan x="10" y="634">  │ │     ├── caseless@0.12.0 </tspan>
<tspan x="10" y="650">  │ │     ├─┬ combined-stream@1.0.5 </tspan>
<tspan x="10" y="666">  │ │     │ └── delayed-stream@1.0.0 </tspan>
<tspan x="10" y="682">  │ │     ├── extend@3.0.0 </tspan>
<tspan x="10" y="698">  │ │     ├── forever-agent@0.6.1 </tspan>
<tspan x="10" y="714">  │ │     ├─┬ form-data@2.1.4 </tspan>
<tspan x="10" y="730">  │ │     │ └── asynckit@0.4.0 </tspan>
<tspan x="10" y="746">  │ │     ├─┬ har-validator@4.2.1 </tspan>
<tspan x="10" y="762">  │ │     │ ├─┬ ajv@4.11.7 </tspan>
<tspan x="10" y="778">  │ │     │ │ ├── co@4.6.0 </tspan>
<tspan x="10" y="794">  │ │     │ │ └─┬ json-stable-stringify@1.0.1 </tspan>
<tspan x="10" y="810">  │ │     │ │   └── jsonify@0.0.0 </tspan>
<tspan x="10" y="826">  │ │     │ └── har-schema@1.0.5 </tspan>
<tspan x="10" y="842">  │ │     ├─┬ hawk@3.1.3 </tspan>
<tspan x="10" y="858">  │ │     │ ├── boom@2.10.1 </tspan>
<tspan x="10" y="874">  │ │     │ ├── cryptiles@2.0.5 </tspan>
<tspan x="10" y="890">  │ │     │ ├── hoek@2.16.3 </tspan>
<tspan x="10" y="906">  │ │     │ └── sntp@1.0.9 </tspan>
<tspan x="10" y="922">  │ │     ├─┬ http-signature@1.1.1 </tspan>
<tspan x="10" y="938">  │ │     │ ├── assert-plus@0.2.0 </tspan>
<tspan x="10" y="954">  │ │     │ ├─┬ jsprim@1.4.0 </tspan>
<tspan x="10" y="970">  │ │     │ │ ├── assert-plus@1.0.0 </tspan>
<tspan x="10" y="986">  │ │     │ │ ├── extsprintf@1.0.2 </tspan>
<tspan x="10" y="1002">  │ │     │ │ ├── json-schema@0.2.3 </tspan>
<tspan x="10" y="1018">  │ │     │ │ └── verror@1.3.6 </tspan>
<tspan x="10" y="1034">  │ │     │ └─┬ sshpk@1.13.0 </tspan>
<tspan x="10" y="1050">  │ │     │   ├── asn1@0.2.3 </tspan>
<tspan x="10" y="1066">  │ │     │   ├── assert-plus@1.0.0 </tspan>
<tspan x="10" y="1082">  │ │     │   ├── bcrypt-pbkdf@1.0.1 </tspan>
<tspan x="10" y="1098">  │ │     │   ├─┬ dashdash@1.14.1 </tspan>
<tspan x="10" y="1114">  │ │     │   │ └── assert-plus@1.0.0 </tspan>
<tspan x="10" y="1130">  │ │     │   ├── ecc-jsbn@0.1.1 </tspan>
<tspan x="10" y="1146">  │ │     │   ├─┬ getpass@0.1.7 </tspan>
<tspan x="10" y="1162">  │ │     │   │ └── assert-plus@1.0.0 </tspan>
<tspan x="10" y="1178">  │ │     │   ├── jodid25519@1.0.2 </tspan>
<tspan x="10" y="1194">  │ │     │   ├── jsbn@0.1.1 </tspan>
<tspan x="10" y="1210">  │ │     │   └── tweetnacl@0.14.5 </tspan>
<tspan x="10" y="1226">  │ │     ├── is-typedarray@1.0.0 </tspan>
<tspan x="10" y="1242">  │ │     ├── isstream@0.1.2 </tspan>
<tspan x="10" y="1258">  │ │     ├── json-stringify-safe@5.0.1 </tspan>
<tspan x="10" y="1274">  │ │     ├─┬ mime-types@2.1.15 </tspan>
<tspan x="10" y="1290">  │ │     │ └── mime-db@1.27.0 </tspan>
<tspan x="10" y="1306">  │ │     ├── oauth-sign@0.8.2 </tspan>
<tspan x="10" y="1322">  │ │     ├── performance-now@0.2.0 </tspan>
<tspan x="10" y="1338">  │ │     ├── qs@6.4.0 </tspan>
<tspan x="10" y="1354">  │ │     ├── safe-buffer@5.0.1 </tspan>
<tspan x="10" y="1370">  │ │     ├── stringstream@0.0.5 </tspan>
<tspan x="10" y="1386">  │ │     ├─┬ tough-cookie@2.3.2 </tspan>
<tspan x="10" y="1402">  │ │     │ └── punycode@1.4.1 </tspan>
<tspan x="10" y="1418">  │ │     ├── tunnel-agent@0.6.0 </tspan>
<tspan x="10" y="1434">  │ │     └── uuid@3.0.1 </tspan>
<tspan x="10" y="1450">  │ └─┬ npm-registry@0.1.13 </tspan>
<tspan x="10" y="1466">  │   └── semver@2.2.1 </tspan>
<tspan x="10" y="1482">  └─┬ shrinkwrap@0.3.0 </tspan>
<tspan x="10" y="1498">    └── eventemitter3@0.1.6</tspan>
</text>
</svg>
